<svg width="153" height="138" viewBox="0 0 153 138" fill="none" xmlns="http://www.w3.org/2000/svg">
<path fill-rule="evenodd" clip-rule="evenodd" d="M2.08131 98.1378C0.7981 97.4363 0 96.0904 0 94.628V26.8309C0 25.3903 0.774622 24.061 2.02795 23.3508L73.0599 -16.9006C74.2659 -17.584 75.7398 -17.5943 76.9553 -16.9278L150.423 23.3612C151.704 24.0635 152.5 25.4079 152.5 26.8684V94.5909C152.5 96.0729 151.681 97.4335 150.37 98.1266L76.9016 136.994C75.7143 137.622 74.291 137.612 73.1124 136.968L2.08131 98.1378ZM15.5 43.5V87.5L68.5 116.5V73L15.5 43.5ZM76 60L24 30L44.5 18L96 48L76 60ZM60.5 9.5L112 39.5L130 30L76 0L60.5 9.5ZM106.5 60L83.5 73V116.5L137.5 87.5V43.5L123 51.5V75.5L106.5 83.5V60Z" fill="#161840"/>
</svg>
